<?xml version="1.0" encoding="UTF-8"?>
<svg id="Capa_2" data-name="Capa 2" xmlns="http://www.w3.org/2000/svg" viewBox="0 0 113.49 57.42">
  <g id="Capa_1-2" data-name="Capa 1">
    <g>
      <path d="M109.38,14.87c-3.3,4.25-10.8,9.39-12.2,14.62-2.16,8.08,8.65,20.49-1.17,26.03-10.34,5.83-17.9-10.58-25.33-10.86-3.91-.15-8.18,6.69-11.28,9.02-5.54,4.15-15.93,6.74-16.93-2.71-.89-8.36,11.22-31.32,15.97-39.06C61.47,6.94,64.89.2,71.54,0c8.89-.26,5.22,11.24,9.42,13.28,7.56,3.67,17.94-17.1,29.66-11.53,5.86,2.79,1.38,9.75-1.24,13.12Z"/>
      <path d="M19.17,23.29l1.72.64c2.52-.2,12.03-13.54,15.09-16.35,3.72-3.43,13.38-10.37,16.44-2.81,2.59,6.4-6.37,18.13-10.14,23.47-5.98,8.48-17.58,23.3-27.03,27.38C2.45,61.14.48,45.77.07,36.72-.22,30.32.3,11.23,2.74,6.08,6.01-.84,13.94-.45,16.53,6.66c1.79,4.92.57,11.53,2.64,16.62Z"/>
    </g>
  </g>
</svg>