<?xml version="1.0" encoding="UTF-8"?>
<svg id="Capa_2" data-name="Capa 2" xmlns="http://www.w3.org/2000/svg" viewBox="0 0 888.33 457.34">
  <defs>
    <style>
      .cls-1 {
        fill: #fff;
      }
    </style>
  </defs>
  <g id="elemento">
    <g>
      <path class="cls-1" d="M1.96,2.63h48.22l17.63,63.22c2.64,9.09,8.31,32.92,8.31,32.92h.41s5.67-23.83,8.1-32.92L102.45,2.63h48.63v144.41h-32.82v-72.71c0-5.86.61-28.88.61-28.88h-.41s-5.07,21.61-6.69,26.86l-20.87,74.73h-29.58l-20.67-74.53c-1.62-5.25-6.69-27.06-6.69-27.06h-.41s.61,23.23.61,29.08v72.51H1.96V2.63Z"/>
      <path class="cls-1" d="M228.06,2.63h36.87l52.27,144.41h-37.68l-8.51-26.05h-50.65l-8.31,26.05h-36.06L228.06,2.63ZM262.7,95.33l-10.94-34.94c-2.43-7.47-5.67-20.4-5.67-20.4h-.41s-3.44,12.93-5.87,20.4l-11.14,34.94h34.04Z"/>
      <path class="cls-1" d="M332.6,101.59h36.06c1.62,14.54,11.14,20.6,28.36,20.6,11.75,0,23.3-4.24,23.3-15.15,0-11.51-11.75-13.94-31.61-18.78-25.12-5.86-51.66-13.53-51.66-43.83S362.18,0,394.59,0s55.71,14.14,57.14,44.43h-35.05c-1.42-11.11-9.93-17.37-23.3-17.37-12.56,0-20.87,5.45-20.87,13.53,0,10.1,11.15,12.52,32.82,17.37,26.95,6.26,51.26,14.54,51.26,45.45s-25.93,47.06-59.36,47.06c-38.49,0-63.82-16.97-64.63-48.88Z"/>
      <path class="cls-1" d="M516.96,32.92h-42.14V2.63h120.55v30.3h-42.55v114.12h-35.86V32.92Z"/>
      <path class="cls-1" d="M623.93,2.63h109.81v29.49h-73.95v25.85h63.42v27.87h-63.42v30.9h75.16v30.3h-111.03V2.63Z"/>
      <path class="cls-1" d="M766.36,2.63h69.29c28.77,0,50.65,14.74,50.65,41.61,0,16.76-8.31,29.08-25.12,34.94v.61c12.56,4.24,19.05,12.12,21.07,26.46,3.04,18.99,1.01,37.16,6.08,38.98v1.82h-34.85c-3.85-2.22-3.24-19.19-5.47-33.53-1.82-13.33-8.71-20.6-24.11-20.6h-21.68v54.13h-35.86V2.63ZM829.17,66.45c14.18,0,21.48-6.67,21.48-17.57s-6.89-17.98-20.67-17.98h-27.76v35.55h26.95Z"/>
      <path class="cls-1" d="M36.3,163.56h25.71l36.45,100.7h-26.27l-5.93-18.17H30.93l-5.79,18.17H0l36.3-100.7ZM60.46,228.2l-7.63-24.37c-1.69-5.21-3.96-14.22-3.96-14.22h-.28s-2.4,9.01-4.1,14.22l-7.77,24.37h23.73Z"/>
      <path class="cls-1" d="M116.12,163.56h45.48c12.29,0,21.33,3.38,27.55,9.3,6.5,6.06,10.17,14.65,10.17,24.79,0,19.29-13.42,32.96-34.18,32.96h-23.59v33.66h-25.43v-100.7ZM160.05,210.88c9.04,0,14.13-5.35,14.13-13.38s-5.23-12.96-14.13-12.96h-18.5v26.34h18.5Z"/>
      <path class="cls-1" d="M218.83,163.56h25v79.57h45.35v21.13h-70.35v-100.7Z"/>
      <path class="cls-1" d="M309.39,163.56h25v100.7h-25v-100.7Z"/>
      <path class="cls-1" d="M354.73,214.26c0-30,19.64-52.67,49.72-52.67,11.72,0,21.61,3.38,28.82,8.87,8.76,6.62,13.84,16.48,15.11,27.74h-25c-1.27-9.01-8.33-15.91-19.07-15.91-16.38,0-24.15,13.66-24.15,31.97s9.32,31.83,24.3,31.83c11.16,0,18.5-7.04,19.64-16.76h25c-.71,10-5.23,19.16-12.15,25.78-7.77,7.46-18.08,11.41-32.35,11.41-29.66,0-49.86-22.11-49.86-52.25Z"/>
      <path class="cls-1" d="M494.31,163.56h25.71l36.45,100.7h-26.27l-5.93-18.17h-35.32l-5.79,18.17h-25.14l36.3-100.7ZM518.46,228.2l-7.63-24.37c-1.69-5.21-3.96-14.22-3.96-14.22h-.28s-2.4,9.01-4.1,14.22l-7.77,24.37h23.73Z"/>
      <path class="cls-1" d="M574.13,163.56h43.08c27.97,0,46.76,20.14,46.76,50.98,0,17.75-6.22,31.97-17.51,40.56-7.91,5.91-18.08,9.15-30.8,9.15h-41.53v-100.7ZM613.83,243.27c16.38,0,24.86-10.28,24.86-28.73s-8.9-30.14-24.58-30.14h-14.97v58.87h14.69Z"/>
      <path class="cls-1" d="M680.23,214.12c0-30.14,19.35-52.53,49.86-52.53s50.01,22.39,50.01,52.53-19.35,52.53-50.01,52.53-49.86-22.39-49.86-52.53ZM754.67,214.12c0-18.31-8.05-32.39-24.44-32.39s-24.58,14.08-24.58,32.39,8.33,32.25,24.58,32.25,24.44-13.94,24.44-32.25Z"/>
      <path class="cls-1" d="M800.45,163.56h48.31c20.06,0,35.31,10.28,35.31,29.01,0,11.69-5.79,20.28-17.51,24.36v.42c8.76,2.96,13.28,8.45,14.69,18.45,2.12,13.24.71,25.92,4.24,27.18v1.27h-24.3c-2.68-1.55-2.26-13.38-3.81-23.38-1.27-9.29-6.07-14.36-16.81-14.36h-15.12v37.75h-25v-100.7ZM844.24,208.06c9.89,0,14.97-4.65,14.97-12.25s-4.8-12.53-14.41-12.53h-19.35v24.79h18.79Z"/>
      <path class="cls-1" d="M417.02,254.35c.74,0,1.37.26,1.88.76.51.51.76,1.14.76,1.88,0,.46-.12.9-.35,1.32-.23.42-.56.74-.97.97-.42.23-.86.35-1.32.35-10.67.19-23.44,1.37-38.29,3.54-14.85,2.17-29.19,4.97-43.02,8.4-1.86,7.77-5.38,21.47-10.58,41.08-4.09,15.54-7.1,27.3-9.05,35.25,12.99-3.42,25.59-6.36,37.8-8.81,12.2-2.45,19.98-3.59,23.32-3.4.74.09,1.34.4,1.81.9.46.51.67,1.14.62,1.88-.05.74-.32,1.37-.83,1.87-.51.51-1.14.76-1.88.76-1.86-.18-5.38.16-10.58,1.04-5.2.88-11.44,2.11-18.73,3.68-7.29,1.57-14.92,3.33-22.9,5.27-3.53.93-6.92,1.8-10.16,2.64-8.91,35.9-13.5,60.51-13.78,73.84-.1,6.38,1.07,10.08,3.48,11.1,1.39.65,3.23.58,5.5-.21,2.27-.79,4.94-2.25,8.01-4.37,3.06-2.13,5.94-4.23,8.63-6.31,2.69-2.08,5.94-4.88,9.75-8.4,3.8-3.52,6.7-6.22,8.7-8.12,1.99-1.89,4.66-4.46,8-7.7,1.95-1.94,3.39-3.38,4.32-4.3l2.37-2.22c3.62-3.52,6.13-5.88,7.52-7.08.93-.83,1.62-1.44,2.09-1.8s1.04-.76,1.74-1.18c.7-.42,1.32-.6,1.88-.56.56.05,1.07.3,1.53.76.65.46,1.02,1,1.11,1.6.09.6-.16,1.46-.77,2.57-.6,1.11-1.23,2.13-1.88,3.05-.65.92-1.81,2.5-3.48,4.72-.46.65-1.07,1.02-1.81,1.11-.74.09-1.39-.09-1.95-.55-.19-.1-.37-.23-.56-.42-.19.18-.74.74-1.67,1.67l-2.37,2.22c-.93.93-2.36,2.31-4.31,4.16-4.83,4.72-8.91,8.65-12.25,11.8-3.34,3.14-7.03,6.46-11.07,9.93-4.04,3.47-7.54,6.22-10.51,8.26-2.97,2.03-5.94,3.72-8.91,5.07-2.97,1.34-5.57,2.01-7.8,2.01-1.49,0-2.78-.28-3.9-.83-4.64-1.94-6.87-7.27-6.68-15.96.18-13.6,4.55-37.66,13.09-72.18-18.75,5.27-29.33,9.07-31.74,11.38-.46.47-1.07.69-1.81.69-.74,0-1.37-.25-1.88-.76-.51-.51-.76-1.13-.76-1.88,0-.74.28-1.39.84-1.94,3.25-3.14,15.54-7.63,36.89-13.46,2.13-8.51,5.43-21.23,9.88-38.17,4.74-17.95,8.03-30.68,9.89-38.17-8.54,2.22-16.04,4.54-22.48,6.94-6.45,2.41-11.86,4.95-16.22,7.64-4.36,2.68-6.91,5.27-7.66,7.77-.74,2.31.79,4.77,4.6,7.36.56.46.9,1.04,1.04,1.73s.02,1.37-.35,2.01c-.56.74-1.3,1.11-2.23,1.11-.56,0-1.07-.14-1.53-.42-5.94-4.07-8.17-8.51-6.68-13.32,2.88-9.53,20.51-18.46,52.91-26.79.56-2.31,1.02-4.3,1.39-5.97.09-.74.46-1.3,1.11-1.67.65-.37,1.32-.49,2.02-.35.7.14,1.25.51,1.67,1.11.42.6.53,1.27.35,2.01-.19.93-.42,2.08-.7,3.47,13.65-3.33,27.75-6.04,42.33-8.12,14.57-2.08,27.1-3.17,37.59-3.26Z"/>
      <path class="cls-1" d="M430.38,314.8c.74.19,1.3.58,1.67,1.18.37.6.46,1.28.28,2.01-.19.74-.6,1.3-1.25,1.67-6.22,3.8-13.32,11.06-21.3,21.79,1.76,3.8,3.57,6.99,5.43,9.58,1.86,2.59,3.57,4.16,5.15,4.72,1.11.37,2.18-.23,3.2-1.81.37-.65.93-1.04,1.67-1.18.74-.14,1.41,0,2.02.42.6.42.97.99,1.11,1.74.14.74.02,1.39-.35,1.94-1.95,2.87-4.27,4.3-6.96,4.3-.74,0-1.49-.09-2.23-.28-4.09-1.39-8.26-6.2-12.53-14.43-5.57,7.87-11.18,17.07-16.85,27.62-.56.92-1.34,1.39-2.37,1.39-.46,0-.88-.14-1.25-.42-.65-.28-1.09-.79-1.32-1.53-.23-.74-.16-1.44.21-2.08,6.4-11.75,12.71-21.98,18.93-30.67-3.9-8.88-5.76-15.59-5.57-20.13,0-.74.28-1.36.83-1.87.56-.51,1.2-.74,1.95-.69.74.05,1.37.35,1.88.9.51.56.77,1.21.77,1.94-.19,2.97,1.06,7.91,3.76,14.85,7.61-9.99,14.62-16.89,21.02-20.68.65-.37,1.34-.46,2.09-.28Z"/>
      <path class="cls-1" d="M474.37,307.03c2.78.83,4.64,3.03,5.57,6.59.93,3.56.79,7.7-.42,12.42-2.23,8.14-7.7,15.68-16.43,22.62-3.62,2.96-7.61,5.55-11.97,7.77-3.34,13.6-7.08,30.51-11.21,50.73-4.13,20.22-7.17,36.2-9.12,47.95-.28,1.48-1.16,2.22-2.64,2.22-.18,0-.32,0-.42,0-.46-.09-.88-.28-1.25-.56-.37-.28-.65-.65-.83-1.11s-.23-.93-.14-1.39c2.41-16.19,7.75-47.47,16.01-93.82-1.11.37-2.23.69-3.34.97-.74.28-1.44.23-2.09-.14-.65-.37-1.06-.93-1.25-1.66-.18-.74-.09-1.43.28-2.08.37-.65.93-1.06,1.67-1.25,1.86-.46,3.76-1.11,5.71-1.94.65-3.24,1.53-8.05,2.65-14.43,4.83-27.02,7.29-41.13,7.38-42.33,0-.74.25-1.36.76-1.87.51-.51,1.09-.76,1.74-.76.74-.09,1.39.12,1.95.62.56.51.88,1.14.97,1.87,0,.74-2.18,13.32-6.54,37.75,1.39-3.89,2.81-7.4,4.25-10.55,1.44-3.15,2.79-5.74,4.04-7.77,1.25-2.03,2.53-3.75,3.83-5.13,1.3-1.39,2.46-2.43,3.48-3.12,1.02-.69,2.02-1.2,2.99-1.53.97-.32,1.81-.46,2.51-.42.7.05,1.32.16,1.88.35ZM474.37,324.65c.84-3.61,1.04-6.52.63-8.75-.42-2.22-1.14-3.47-2.16-3.75-.09-.09-.23-.14-.42-.14-.56,0-1.18.21-1.88.62-.7.42-1.6,1.21-2.71,2.36-1.11,1.16-2.25,2.64-3.41,4.44-1.16,1.8-2.46,4.28-3.9,7.43-1.44,3.15-2.85,6.76-4.25,10.83-.93,2.78-2.04,6.66-3.34,11.66,5.29-3.24,9.86-6.99,13.71-11.24,3.85-4.26,6.43-8.74,7.73-13.46Z"/>
      <path class="cls-1" d="M542.18,327.08c.74-.14,1.41,0,2.02.42.6.42.95.99,1.05,1.73.09.74-.05,1.39-.42,1.94-10.49,14.62-20.05,24.98-28.68,31.09-3.43,2.41-6.82,3.61-10.16,3.61-2.6,0-4.87-.69-6.82-2.08-1.11-.83-2.11-1.94-2.99-3.33-.88-1.39-1.65-3.33-2.3-5.83-.65-2.5-.77-5.78-.35-9.85.42-4.07,1.46-8.7,3.13-13.88v-.14c2.6-8.42,5.75-15.08,9.47-19.99,3.71-4.9,7.05-7.4,10.03-7.5,2.13-.09,3.53.83,4.18,2.78,1.02,2.69-.19,6.48-3.62,11.38-3.43,4.91-8.49,10.18-15.17,15.82-1.11,3.61-1.9,6.94-2.37,9.99s-.63,5.48-.49,7.29c.14,1.8.46,3.38.98,4.72.51,1.34.97,2.29,1.39,2.84.42.56.86,1.02,1.32,1.39,2.78,2.04,6.36,1.48,10.72-1.67,8.17-5.73,17.26-15.64,27.29-29.7.46-.56,1.06-.9,1.81-1.04ZM515.17,309.11c-3.25,2.04-6.45,6.43-9.61,13.18,5.38-5.36,8.58-9.76,9.61-13.18Z"/>
      <path class="cls-1" d="M607.12,326.94c.7-.23,1.37-.19,2.02.14.65.32,1.11.83,1.39,1.53.28.69.23,1.37-.14,2.01-2.51,5.37-5.34,10.87-8.49,16.52-3.16,5.64-6.61,11.36-10.37,17.14-3.76,5.78-7.5,10.5-11.21,14.16-3.71,3.66-6.87,5.48-9.47,5.48-.65,0-1.25-.14-1.81-.41-3.81-1.48-5.01-7.22-3.62-17.21,1.3-9.35,4.73-22.58,10.3-39.69-.09,0-.16.02-.21.07-.05.05-.12.07-.21.07-2.04,1.39-3.74,2.45-5.08,3.19-1.35.74-3.16,1.57-5.43,2.5-2.28.92-4.43,1.34-6.47,1.25-2.04-.09-3.95-.74-5.71-1.94-3.53-2.5-5.34-5.97-5.43-10.41-.09-4.44,1.58-9.3,5.01-14.57,2.13-3.33,4.71-6.25,7.73-8.75,3.01-2.5,5.59-3.05,7.73-1.66,1.3.74,2.07,1.94,2.3,3.61.23,1.67-.58,4.88-2.44,9.65-1.86,4.77-4.97,10.99-9.33,18.67,2.88.37,7.61-1.62,14.2-5.97,1.21-.83,2.11-1.41,2.71-1.74.6-.32,1.3-.67,2.09-1.04.79-.37,1.46-.51,2.02-.42.56.1,1.11.33,1.67.69,1.39,1.11,1.62,3.05.69,5.83-9.28,28.68-12.95,46.08-11,52.19.19.37.32.65.42.83.74.09,1.88-.51,3.41-1.8,1.53-1.3,3.43-3.33,5.71-6.11,2.27-2.78,4.73-6.11,7.38-9.99,2.64-3.89,5.57-8.65,8.77-14.3,3.2-5.64,6.29-11.66,9.26-18.04.37-.74.9-1.23,1.6-1.46ZM553.03,317.57c-.84,3.24-.65,5.83.56,7.78,6.77-11.75,10.39-19.71,10.86-23.87-1.11.65-2.39,1.71-3.83,3.19-1.44,1.48-2.92,3.4-4.46,5.76-1.53,2.36-2.58,4.74-3.13,7.15Z"/>
      <path class="cls-1" d="M734.46,288.7c.46.56.65,1.2.56,1.94-.09.74-.46,1.34-1.11,1.81-1.11.74-2.18.69-3.2-.14-4.46-1.57-35.74-1.71-93.84-.42-6.04,25.26-12.16,52.65-18.38,82.17-7.42,35.62-11.93,60.1-13.5,73.42.19,0,.37.05.56.14.74.18,1.25.62,1.53,1.32.28.69.28,1.36,0,2.01-.46,1.48-.86,2.57-1.18,3.26-.32.69-.81,1.39-1.46,2.08-.65.7-1.35,1.04-2.09,1.04-.28,0-.6-.05-.97-.14-1.21-.37-1.93-1.34-2.16-2.91-.23-1.58-.11-3.7.35-6.39.37-3.89,1.21-9.49,2.51-16.79,2.32-13.88,5.8-31.92,10.44-54.13,6.22-29.98,12.48-58.29,18.8-84.94-6.31.09-14.16.28-23.53.55-14.85.37-23.57.56-26.17.56-.74,0-1.37-.25-1.88-.76-.51-.51-.77-1.13-.77-1.87,0-.46.12-.9.35-1.32.23-.42.56-.74.98-.97.42-.23.86-.35,1.32-.35,2.6,0,11.28-.23,26.03-.69,9.19-.18,17.54-.37,25.06-.56,2.97-12.21,5.61-22.58,7.94-31.09.18-.74.6-1.29,1.25-1.67.65-.37,1.32-.46,2.02-.28.7.19,1.23.6,1.6,1.25.37.65.46,1.34.28,2.08-2.23,8.24-4.78,18.09-7.66,29.56,27.85-.74,48.87-1.02,63.07-.83,14.2.19,23.13.49,26.8.9,3.67.42,5.82,1.14,6.47,2.15Z"/>
    </g>
  </g>
</svg>