<?xml version="1.0" encoding="UTF-8"?>
<svg id="Capa_2" data-name="Capa 2" xmlns="http://www.w3.org/2000/svg" viewBox="0 0 397.97 53.23">
  <defs>
    <style>
      .cls-1 {
        fill: #fff;
      }
    </style>
  </defs>
  <g id="elemento">
    <g>
      <path class="cls-1" d="M98.99,14.25c-2.98,3.84-9.77,8.5-11.04,13.23-1.96,7.32,7.83,18.54-1.06,23.56-9.36,5.28-16.2-9.57-22.92-9.83-3.54-.14-7.4,6.06-10.21,8.16-5.02,3.76-14.41,6.1-15.33-2.46-.81-7.56,10.16-28.34,14.45-35.35,2.75-4.49,5.85-10.59,11.86-10.77,8.05-.24,4.72,10.17,8.52,12.01,6.84,3.32,16.23-15.48,26.84-10.44,5.3,2.52,1.25,8.83-1.12,11.88Z"/>
      <path class="cls-1" d="M369.21,1.01c-15.75,2.14-23.74,18.33-22.39,32.98,1.92,20.75,30.6,22.42,43.05,8.88,17.13-18.6,5.63-45.44-20.66-41.86ZM371.23,28.73c-4.26-1.26-5.77-9.62.72-10.65,11.58-1.84,9.18,13.58-.72,10.65Z"/>
      <path class="cls-1" d="M273.4,4.49c4.35,4.3,1.83,11.53.08,16.36-5.62,15.52-19.99,37.5-39.49,30.91-15.03-5.08-12.96-25.48-8.74-37.42,1.67-4.73,5.12-13.29,11.65-11.31,8.62,2.6-1.95,24.42,10.42,23.86,7.92-.36,11.62-14.52,15.76-19.86,2.65-3.42,6.4-6.41,10.32-2.55Z"/>
      <path class="cls-1" d="M310.11,5.05c-4.44-3.01-13.64-5.02-18.87-4.05-4,.73-5.62,4.44-7.46,7.58-4.73,8.09-12.64,26.01-13.5,35.08-1.22,12.73,20.31,8.41,27.48,5.58,14.63-5.77,28.6-33.15,12.35-44.18ZM292.56,32.9c-3.87-1.25,1.08-10.97,4.14-11.45,7.88-1.22,2.91,13-4.14,11.45Z"/>
      <path class="cls-1" d="M153.46,20.15c-5.94,6.32,10.8,14.74,4.36,25.91-7.89,13.69-43.2,6.71-40.06-12.03,1.54-9.21,18.88,3.11,17.62-6.69-.97-7.58-6.17-13.63.8-21.38,8.57-9.52,37.53-8.18,32.51,7.9-1.92,6.14-12.71,3.6-15.24,6.29Z"/>
      <path class="cls-1" d="M17.35,21.87l1.56.58c2.28-.18,10.89-12.25,13.65-14.8,3.37-3.1,12.11-9.39,14.88-2.54,2.34,5.79-5.76,16.4-9.18,21.24-5.42,7.67-15.91,21.09-24.46,24.78C2.22,56.12.44,42.21.07,34.03-.2,28.23.27,10.95,2.48,6.29,5.44.03,12.62.38,14.96,6.82c1.62,4.46.51,10.43,2.39,15.04Z"/>
      <path class="cls-1" d="M222.13,16.34c-3.1,2.66-8.26,2.13-11.91,3.49-13.23,4.94-12.87,33.2-26.44,32.26-2.07-.14-4.43-1.68-5.52-3.42-3.71-5.95,5.75-18.55,5.13-25.61-.6-6.81-12.36-6.54-10.14-16.27.63-2.79,4.13-4.32,6.65-4.97,7.05-1.83,28.38-.97,35.63.69,6.93,1.59,14.12,7.38,6.59,13.84Z"/>
      <path class="cls-1" d="M339.04.36c4.59-.27,9.12,3.59,9.14,8.32.02,3.54-9.36,26.43-11.51,30.9-2.75,5.73-6.33,12.05-13.43,12.56-14.79,1.06-9.54-11.31-5.96-19.64,2.33-5.43,11.51-25.93,14.93-28.84,1.31-1.11,5.19-3.21,6.83-3.31Z"/>
    </g>
  </g>
</svg>